<svg xmlns="http://www.w3.org/2000/svg" width="800" height="180" viewBox="0 0 800 180" role="img" aria-labelledby="logo-title logo-desc">
  <title id="logo-title">Conductor</title>
  <desc id="logo-desc">The Switch: parallel routes form a C with a separate right-leaning parallelogram. This is brand artwork, not status.</desc>
  <g id="mark" transform="scale(0.6875)">
    <g id="routes" fill="currentColor">
      <path d="M198 39.5H124A88.5 88.5 0 0 0 124 216.5H204A8.5 8.5 0 0 0 204 199.5H124A71.5 71.5 0 0 1 124 56.5H181Z" />
      <path d="M199 63.5L176 86.5Q170 92.5 167 92.5H124A35.5 35.5 0 0 0 124 163.5H204A8.5 8.5 0 0 1 204 180.5H124A52.5 52.5 0 0 1 124 75.5H164.5L176.5 63.5Z" />
    </g>
    <path id="junction" fill="currentColor" d="M204 39.5H236L216 59.5H184Z" />
  </g>
  <g id="wordmark" fill="currentColor" transform="translate(195 122) scale(0.0527344 -0.0527344)">
    <path transform="translate(0.000 0)" d="M774 -24C1110 -24 1366 184 1416 509H1148C1106 320 966 213 776 213C502 213 338 424 338 744C338 1066 503 1277 776 1277C967 1277 1107 1169 1147 979H1416C1366 1305 1110 1514 774 1514C363 1514 72 1212 72 744C72 279 363 -24 774 -24Z" />
    <path transform="translate(1419.526 0)" d="M584 -24C895 -24 1105 199 1105 527C1105 855 895 1080 584 1080C273 1080 63 855 63 527C63 199 273 -24 584 -24ZM584 187C421 187 318 316 318 527C318 739 422 869 584 869C745 869 849 738 849 527C849 317 746 187 584 187Z" />
    <path transform="translate(2522.052 0)" d="M364 597C364 777 463 856 595 856C730 856 808 775 808 620V0H1061V660C1061 931 905 1077 684 1077C539 1077 432 1013 360 894V1056H112V0H364Z" />
    <path transform="translate(3630.578 0)" d="M520 -21C658 -21 774 39 840 161H842V0H1090V1490H838V906H836C768 1022 655 1077 518 1077C247 1077 63 854 63 529C63 200 244 -21 520 -21ZM579 190C423 190 318 310 318 529C318 747 423 868 579 868C744 868 852 734 852 529C852 323 744 190 579 190Z" />
    <path transform="translate(4768.104 0)" d="M488 -21C634 -21 741 43 813 162V0H1061V1056H808V459C808 279 710 200 577 200C442 200 364 281 364 436V1056H112V396C112 125 267 -21 488 -21Z" />
    <path transform="translate(5876.630 0)" d="M579 -24C846 -24 1040 148 1058 379H809C785 262 714 186 582 186C416 186 318 319 318 527C318 736 417 870 582 870C713 870 792 791 811 678H1058C1036 913 844 1080 579 1080C270 1080 63 853 63 527C63 201 270 -24 579 -24Z" />
    <path transform="translate(6927.156 0)" d="M669 1056H454V1344H201V1056H17V853H201V266C201 85 302 0 517 0H669V203H561C479 203 454 228 454 303V853H669Z" />
    <path transform="translate(7578.681 0)" d="M584 -24C895 -24 1105 199 1105 527C1105 855 895 1080 584 1080C273 1080 63 855 63 527C63 199 273 -24 584 -24ZM584 187C421 187 318 316 318 527C318 739 422 869 584 869C745 869 849 738 849 527C849 317 746 187 584 187Z" />
    <path transform="translate(8681.207 0)" d="M112 0H364V598C364 763 457 846 577 846C627 846 677 841 696 838V1062C676 1064 648 1066 614 1066C478 1066 397 1002 358 881H355V1056H112Z" />
  </g>
</svg>
